HIERARCHY
ROOT Hips
{
    OFFSET 0.000 97.120 0.000
    CHANNELS 6 Xposition Yposition Zposition Yrotation Xrotation Zrotation
    JOINT RightUpLeg
    {
        OFFSET -11.000 -0.000 0.000
        CHANNELS 3 Yrotation Xrotation Zrotation
        JOINT RightLeg
        {
            OFFSET 0.000 -45.062 0.000
            CHANNELS 3 Yrotation Xrotation Zrotation
            JOINT RightFoot
            {
                OFFSET 0.000 -42.058 0.000
                CHANNELS 3 Yrotation Xrotation Zrotation
                End Site
                {
                    OFFSET 0.000 -10.000 17.010
                }
            }
        }
    }
    JOINT LeftUpLeg
    {
        OFFSET 11.000 -0.000 0.000
        CHANNELS 3 Yrotation Xrotation Zrotation
        JOINT LeftLeg
        {
            OFFSET 0.000 -45.062 0.000
            CHANNELS 3 Yrotation Xrotation Zrotation
            JOINT LeftFoot
            {
                OFFSET 0.000 -42.058 0.000
                CHANNELS 3 Yrotation Xrotation Zrotation
                End Site
                {
                    OFFSET 0.000 -10.000 17.010
                }
            }
        }
    }
    JOINT Spine
    {
        OFFSET 0.000 8.120 0.000
        CHANNELS 3 Yrotation Xrotation Zrotation
        JOINT Spine1
        {
            OFFSET 0.000 17.980 0.000
            CHANNELS 3 Yrotation Xrotation Zrotation
            JOINT Spine2
            {
                OFFSET 0.000 12.760 0.000
                CHANNELS 3 Yrotation Xrotation Zrotation
                JOINT Neck
                {
                    OFFSET 0.000 19.140 0.000
                    CHANNELS 3 Yrotation Xrotation Zrotation
                    JOINT Neck1
                    {
                        OFFSET 0.000 4.250 0.000
                        CHANNELS 3 Yrotation Xrotation Zrotation
                        JOINT Head
                        {
                            OFFSET 0.000 4.250 0.000
                            CHANNELS 3 Yrotation Xrotation Zrotation
                            End Site
                            {
                                OFFSET 0.000 19.120 0.000
                            }
                        }
                    }
                }
                JOINT RightShoulder
                {
                    OFFSET -2.900 13.340 0.000
                    CHANNELS 3 Yrotation Xrotation Zrotation
                    JOINT RightArm
                    {
                        OFFSET -16.100 0.000 0.000
                        CHANNELS 3 Yrotation Xrotation Zrotation
                        JOINT RightForeArm
                        {
                            OFFSET -28.000 0.000 0.000
                            CHANNELS 3 Yrotation Xrotation Zrotation
                            JOINT RightHand
                            {
                                OFFSET -26.000 0.000 0.000
                                CHANNELS 3 Yrotation Xrotation Zrotation
                                JOINT RightHandThumb1
                                {
                                    OFFSET -2.617 0.200 3.281
                                    CHANNELS 3 Yrotation Xrotation Zrotation
                                    JOINT RightHandThumb2
                                    {
                                        OFFSET -1.936 -2.738 1.936
                                        CHANNELS 3 Yrotation Xrotation Zrotation
                                        JOINT RightHandThumb3
                                        {
                                            OFFSET -1.345 -1.902 1.345
                                            CHANNELS 3 Yrotation Xrotation Zrotation
                                            End Site
                                            {
                                                OFFSET -1.153 -1.631 1.153
                                            }
                                        }
                                    }
                                }
                                JOINT RightInHandIndex
                                {
                                    OFFSET -3.389 0.535 2.080
                                    CHANNELS 3 Yrotation Xrotation Zrotation
                                    JOINT RightHandIndex1
                                    {
                                        OFFSET -5.485 -0.096 1.051
                                        CHANNELS 3 Yrotation Xrotation Zrotation
                                        JOINT RightHandIndex2
                                        {
                                            OFFSET -3.806 0.000 0.000
                                            CHANNELS 3 Yrotation Xrotation Zrotation
                                            JOINT RightHandIndex3
                                            {
                                                OFFSET -2.158 0.000 0.000
                                                CHANNELS 3 Yrotation Xrotation Zrotation
                                                End Site
                                                {
                                                    OFFSET -1.898 0.000 0.000
                                                }
                                            }
                                        }
                                    }
                                }
                                JOINT RightInHandMiddle
                                {
                                    OFFSET -3.556 0.544 0.796
                                    CHANNELS 3 Yrotation Xrotation Zrotation
                                    JOINT RightHandMiddle1
                                    {
                                        OFFSET -5.440 -0.088 0.330
                                        CHANNELS 3 Yrotation Xrotation Zrotation
                                        JOINT RightHandMiddle2
                                        {
                                            OFFSET -4.153 0.000 0.000
                                            CHANNELS 3 Yrotation Xrotation Zrotation
                                            JOINT RightHandMiddle3
                                            {
                                                OFFSET -2.603 0.000 0.000
                                                CHANNELS 3 Yrotation Xrotation Zrotation
                                                End Site
                                                {
                                                    OFFSET -2.076 0.000 0.000
                                                }
                                            }
                                        }
                                    }
                                }
                                JOINT RightInHandRing
                                {
                                    OFFSET -3.538 0.566 -0.136
                                    CHANNELS 3 Yrotation Xrotation Zrotation
                                    JOINT RightHandRing1
                                    {
                                        OFFSET -4.873 -0.023 -0.504
                                        CHANNELS 3 Yrotation Xrotation Zrotation
                                        JOINT RightHandRing2
                                        {
                                            OFFSET -3.619 0.000 0.000
                                            CHANNELS 3 Yrotation Xrotation Zrotation
                                            JOINT RightHandRing3
                                            {
                                                OFFSET -2.511 0.000 0.000
                                                CHANNELS 3 Yrotation Xrotation Zrotation
                                                End Site
                                                {
                                                    OFFSET -1.952 0.000 0.000
                                                }
                                            }
                                        }
                                    }
                                }
                                JOINT RightInHandPinky
                                {
                                    OFFSET -3.324 0.494 -1.264
                                    CHANNELS 3 Yrotation Xrotation Zrotation
                                    JOINT RightHandPinky1
                                    {
                                        OFFSET -4.354 -0.023 -1.147
                                        CHANNELS 3 Yrotation Xrotation Zrotation
                                        JOINT RightHandPinky2
                                        {
                                            OFFSET -2.898 0.000 0.000
                                            CHANNELS 3 Yrotation Xrotation Zrotation
                                            JOINT RightHandPinky3
                                            {
                                                OFFSET -1.831 0.000 0.000
                                                CHANNELS 3 Yrotation Xrotation Zrotation
                                                End Site
                                                {
                                                    OFFSET -1.730 0.000 0.000
                                                }
                                            }
                                        }
                                    }
                                }
                            }
                        }
                    }
                }
                JOINT LeftShoulder
                {
                    OFFSET 2.900 13.340 0.000
                    CHANNELS 3 Yrotation Xrotation Zrotation
                    JOINT LeftArm
                    {
                        OFFSET 16.100 0.000 0.000
                        CHANNELS 3 Yrotation Xrotation Zrotation
                        JOINT LeftForeArm
                        {
                            OFFSET 28.000 0.000 0.000
                            CHANNELS 3 Yrotation Xrotation Zrotation
                            JOINT LeftHand
                            {
                                OFFSET 26.000 0.000 0.000
                                CHANNELS 3 Yrotation Xrotation Zrotation
                                JOINT LeftHandThumb1
                                {
                                    OFFSET 2.617 0.200 3.281
                                    CHANNELS 3 Yrotation Xrotation Zrotation
                                    JOINT LeftHandThumb2
                                    {
                                        OFFSET 1.936 -2.738 1.936
                                        CHANNELS 3 Yrotation Xrotation Zrotation
                                        JOINT LeftHandThumb3
                                        {
                                            OFFSET 1.345 -1.902 1.345
                                            CHANNELS 3 Yrotation Xrotation Zrotation
                                            End Site
                                            {
                                                OFFSET 1.153 -1.631 1.153
                                            }
                                        }
                                    }
                                }
                                JOINT LeftInHandIndex
                                {
                                    OFFSET 3.389 0.535 2.080
                                    CHANNELS 3 Yrotation Xrotation Zrotation
                                    JOINT LeftHandIndex1
                                    {
                                        OFFSET 5.485 -0.096 1.051
                                        CHANNELS 3 Yrotation Xrotation Zrotation
                                        JOINT LeftHandIndex2
                                        {
                                            OFFSET 3.806 0.000 0.000
                                            CHANNELS 3 Yrotation Xrotation Zrotation
                                            JOINT LeftHandIndex3
                                            {
                                                OFFSET 2.158 0.000 0.000
                                                CHANNELS 3 Yrotation Xrotation Zrotation
                                                End Site
                                                {
                                                    OFFSET 1.898 0.000 0.000
                                                }
                                            }
                                        }
                                    }
                                }
                                JOINT LeftInHandMiddle
                                {
                                    OFFSET 3.556 0.544 0.796
                                    CHANNELS 3 Yrotation Xrotation Zrotation
                                    JOINT LeftHandMiddle1
                                    {
                                        OFFSET 5.440 -0.088 0.330
                                        CHANNELS 3 Yrotation Xrotation Zrotation
                                        JOINT LeftHandMiddle2
                                        {
                                            OFFSET 4.153 0.000 0.000
                                            CHANNELS 3 Yrotation Xrotation Zrotation
                                            JOINT LeftHandMiddle3
                                            {
                                                OFFSET 2.603 0.000 0.000
                                                CHANNELS 3 Yrotation Xrotation Zrotation
                                                End Site
                                                {
                                                    OFFSET 2.076 0.000 0.000
                                                }
                                            }
                                        }
                                    }
                                }
                                JOINT LeftInHandRing
                                {
                                    OFFSET 3.538 0.566 -0.136
                                    CHANNELS 3 Yrotation Xrotation Zrotation
                                    JOINT LeftHandRing1
                                    {
                                        OFFSET 4.873 -0.023 -0.504
                                        CHANNELS 3 Yrotation Xrotation Zrotation
                                        JOINT LeftHandRing2
                                        {
                                            OFFSET 3.619 0.000 0.000
                                            CHANNELS 3 Yrotation Xrotation Zrotation
                                            JOINT LeftHandRing3
                                            {
                                                OFFSET 2.511 0.000 0.000
                                                CHANNELS 3 Yrotation Xrotation Zrotation
                                                End Site
                                                {
                                                    OFFSET 1.952 0.000 0.000
                                                }
                                            }
                                        }
                                    }
                                }
                                JOINT LeftInHandPinky
                                {
                                    OFFSET 3.324 0.494 -1.264
                                    CHANNELS 3 Yrotation Xrotation Zrotation
                                    JOINT LeftHandPinky1
                                    {
                                        OFFSET 4.354 -0.023 -1.147
                                        CHANNELS 3 Yrotation Xrotation Zrotation
                                        JOINT LeftHandPinky2
                                        {
                                            OFFSET 2.898 0.000 0.000
                                            CHANNELS 3 Yrotation Xrotation Zrotation
                                            JOINT LeftHandPinky3
                                            {
                                                OFFSET 1.831 0.000 0.000
                                                CHANNELS 3 Yrotation Xrotation Zrotation
                                                End Site
                                                {
                                                    OFFSET 1.730 0.000 0.000
                                                }
                                            }
                                        }
                                    }
                                }
                            }
                        }
                    }
                }
            }
        }
    }
}
MOTION
Frames: 4
Frame Time: 0.011111
-122.657669 98.678383 -234.349136 149.757187 -173.915680 -174.399994 155.231384 -176.510895 179.996857 3.638217 18.016001 -10.256087 1.765406 -4.260200 6.381051 0.542228 -1.278234 -10.820127 1.692263 10.359870 0.340939 172.322220 -178.917313 179.486481 178.464203 170.080490 178.039948 178.466217 170.301880 176.916153 173.692535 173.808609 174.912064 179.999802 -172.091629 -177.003113 179.999786 -170.773560 -176.896057 0.751991 -6.718953 1.869794 2.915442 -10.489832 3.064973 15.066751 3.365580 105.411980 29.759304 -26.420792 -23.916096 9.029748 -5.938426 -7.935118 3.227546 -22.110285 -23.970507 179.145279 164.999954 -167.661728 0.533132 -0.379619 0.376094 180.000000 -180.000000 180.000000 15.000049 -0.000005 22.983458 180.000000 -179.999985 -161.195358 0.000001 0.000007 13.163306 180.000000 -180.000000 -180.000000 0.000010 0.000003 28.287096 0.000001 -0.000009 34.104549 180.000000 -180.000000 -157.286423 180.000000 -180.000000 180.000000 170.000015 -179.999985 -152.110260 179.999985 180.000000 -148.689804 0.000008 0.000006 20.852537 180.000000 -180.000000 180.000000 160.000061 -179.999985 -155.133041 180.000000 179.999985 -142.699570 180.000000 -179.999985 -155.157928 2.072402 -5.745725 4.062951 172.513168 176.777664 77.658783 142.732758 -169.472641 -157.457428 175.975174 169.991241 -167.568283 176.772461 -157.889740 -156.029495 0.854716 15.000041 -12.338286 0.535626 0.376091 0.379619 0.000005 -0.000002 0.000002 164.999954 -179.999985 157.016541 0.000002 -0.000003 -18.804642 180.000000 179.999985 166.836685 0.000005 -0.000002 0.000002 179.999985 179.999985 151.712906 180.000000 -179.999985 145.895447 0.000000 -0.000002 -22.713579 0.000005 -0.000002 0.000002 9.999979 -0.000006 -27.889727 0.000007 0.000000 -31.310192 179.999985 179.999985 159.147461 0.000005 -0.000002 0.000002 19.999945 -0.000026 -24.866964 0.000004 0.000009 -37.300442 0.000001 -0.000004 -24.842075 
-122.516998 98.629562 -234.588791 149.999786 -173.809616 -174.786774 155.130295 -176.070358 -179.482895 3.393286 18.721251 -10.864784 1.903005 -3.425072 6.704785 1.353786 -1.307531 -10.306959 1.223392 10.484266 0.190673 171.879227 -179.197617 179.370789 178.446976 169.698517 178.102463 178.448608 169.926193 177.029480 173.606873 173.518234 175.003052 179.999985 -172.148575 -176.913956 180.000000 -170.840012 -176.803757 0.681178 -6.662094 1.934319 3.009693 -10.706082 2.999247 16.394190 2.483190 105.111992 30.302521 -26.833115 -25.002304 8.388227 -4.299564 -8.205992 3.227546 -22.110285 -23.970507 179.145279 164.999954 -167.661728 0.533132 -0.379619 0.376094 180.000000 -180.000000 180.000000 15.000049 -0.000005 22.983458 180.000000 -179.999985 -161.195358 0.000001 0.000007 13.163306 180.000000 -180.000000 -180.000000 0.000010 0.000003 28.287096 0.000001 -0.000009 34.104549 180.000000 -180.000000 -157.286423 180.000000 -180.000000 180.000000 170.000015 -179.999985 -152.110260 179.999985 180.000000 -148.689804 0.000008 0.000006 20.852537 180.000000 -180.000000 180.000000 160.000061 -179.999985 -155.133041 180.000000 179.999985 -142.699570 180.000000 -179.999985 -155.157928 1.935584 -6.048679 4.276422 171.397293 177.098465 77.850830 141.553177 -169.242081 -156.059067 175.520721 170.248535 -167.257477 176.772461 -157.889740 -156.029495 0.854716 15.000041 -12.338286 0.535626 0.376091 0.379619 0.000005 -0.000002 0.000002 164.999954 -179.999985 157.016541 0.000002 -0.000003 -18.804642 180.000000 179.999985 166.836685 0.000005 -0.000002 0.000002 179.999985 179.999985 151.712906 180.000000 -179.999985 145.895447 0.000000 -0.000002 -22.713579 0.000005 -0.000002 0.000002 9.999979 -0.000006 -27.889727 0.000007 0.000000 -31.310192 179.999985 179.999985 159.147461 0.000005 -0.000002 0.000002 19.999945 -0.000026 -24.866964 0.000004 0.000009 -37.300442 0.000001 -0.000004 -24.842075 
-122.340332 98.580299 -234.856720 150.236710 -173.716843 -175.212677 154.924789 -175.581451 -178.982971 3.098401 19.437668 -11.340611 2.212096 -2.590173 6.926225 1.988325 -1.461285 -9.759379 0.810614 10.720502 0.038496 171.585922 -179.435715 179.248840 178.436615 169.329300 178.175201 178.438461 169.562653 177.158661 173.536636 173.229828 175.116272 179.999741 -172.179291 -176.848312 179.999741 -170.875839 -176.735733 0.606861 -6.629145 1.984699 3.036938 -11.176976 3.022619 17.596117 1.869690 104.900810 30.522718 -26.729906 -26.065907 7.964713 -2.412210 -8.713114 3.227546 -22.110285 -23.970507 179.145279 164.999954 -167.661728 0.533132 -0.379619 0.376094 180.000000 -180.000000 180.000000 15.000049 -0.000005 22.983458 180.000000 -179.999985 -161.195358 0.000001 0.000007 13.163306 180.000000 -180.000000 -180.000000 0.000010 0.000003 28.287096 0.000001 -0.000009 34.104549 180.000000 -180.000000 -157.286423 180.000000 -180.000000 180.000000 170.000015 -179.999985 -152.110260 179.999985 180.000000 -148.689804 0.000008 0.000006 20.852537 180.000000 -180.000000 180.000000 160.000061 -179.999985 -155.133041 180.000000 179.999985 -142.699570 180.000000 -179.999985 -155.157928 1.815791 -6.292463 4.482083 170.179688 177.552734 78.085190 140.159225 -169.144455 -154.257095 175.406021 170.572571 -167.189026 176.772461 -157.889740 -156.029495 0.854716 15.000041 -12.338286 0.535626 0.376091 0.379619 0.000005 -0.000002 0.000002 164.999954 -179.999985 157.016541 0.000002 -0.000003 -18.804642 180.000000 179.999985 166.836685 0.000005 -0.000002 0.000002 179.999985 179.999985 151.712906 180.000000 -179.999985 145.895447 0.000000 -0.000002 -22.713579 0.000005 -0.000002 0.000002 9.999979 -0.000006 -27.889727 0.000007 0.000000 -31.310192 179.999985 179.999985 159.147461 0.000005 -0.000002 0.000002 19.999945 -0.000026 -24.866964 0.000004 0.000009 -37.300442 0.000001 -0.000004 -24.842075 
-122.118416 98.530006 -235.116119 150.359482 -173.627426 -175.421234 154.867310 -174.999863 -178.681992 2.579468 20.124294 -11.950511 2.757240 -1.446091 7.158380 2.404196 -1.651909 -9.483568 0.892604 10.920923 -0.076663 171.156021 -179.662628 179.217941 178.435822 168.897919 178.193741 178.437851 169.139053 177.197723 173.545319 172.916428 175.115433 0.000007 -7.851017 3.219145 0.000011 -9.159539 3.334130 0.446471 -6.643981 2.047698 3.105515 -11.644858 2.954314 19.574112 1.194900 104.384972 30.636507 -26.667772 -27.099497 7.811517 -1.727872 -9.321427 3.227546 -22.110285 -23.970507 179.145279 164.999954 -167.661728 0.533132 -0.379619 0.376094 180.000000 -180.000000 180.000000 15.000049 -0.000005 22.983458 180.000000 -179.999985 -161.195358 0.000001 0.000007 13.163306 180.000000 -180.000000 -180.000000 0.000010 0.000003 28.287096 0.000001 -0.000009 34.104549 180.000000 -180.000000 -157.286423 180.000000 -180.000000 180.000000 170.000015 -179.999985 -152.110260 179.999985 180.000000 -148.689804 0.000008 0.000006 20.852537 180.000000 -180.000000 180.000000 160.000061 -179.999985 -155.133041 180.000000 179.999985 -142.699570 180.000000 -179.999985 -155.157928 1.609235 -6.897449 4.739480 169.326233 177.907547 78.275192 138.749283 -169.295639 -152.465408 175.405960 170.732391 -167.209198 176.772461 -157.889740 -156.029495 0.854716 15.000041 -12.338286 0.535626 0.376091 0.379619 0.000005 -0.000002 0.000002 164.999954 -179.999985 157.016541 0.000002 -0.000003 -18.804642 180.000000 179.999985 166.836685 0.000005 -0.000002 0.000002 179.999985 179.999985 151.712906 180.000000 -179.999985 145.895447 0.000000 -0.000002 -22.713579 0.000005 -0.000002 0.000002 9.999979 -0.000006 -27.889727 0.000007 0.000000 -31.310192 179.999985 179.999985 159.147461 0.000005 -0.000002 0.000002 19.999945 -0.000026 -24.866964 0.000004 0.000009 -37.300442 0.000001 -0.000004 -24.842075 
